<svg xmlns="http://www.w3.org/2000/svg" viewBox="0 0 127 127"><defs><style>.cls-2{fill:#dd0333}.cls-4{fill:none}.cls-5{fill:#fff}</style></defs><g id="Capa_2" data-name="Capa 2"><g id="Capa_1-2" data-name="Capa 1"><path fill="#f4f7f9" d="M0 0h127v127H0z"/><path class="cls-2" d="M33.21 88.08a4.33 4.33 0 0 0-.52-.89 6.24 6.24 0 0 0 .52.89zM111.72 26.11L97.82 9.32 76.26 29.56l4.62 5.73 30.84-9.18zM66.81 29.2L53.98 7.37 26.16 27.64l33.24 5.64 7.41-4.08zM41.8 50.8c3.38-2.37 10.2-5.09 10.2-5.09a8.82 8.82 0 0 1 3.24-3L58.6 41l-.86-2.93-28.8 7.41zM65.71 36.21a6.48 6.48 0 0 1-1.27 2.09l-.48.51a.69.69 0 0 0-.2.56.72.72 0 0 0 .78.66c1.39-.11 3.77-.11 5-.07s3.56.22 4.94.43a.76.76 0 0 0 .86-.64.77.77 0 0 0-.1-.49l-.42-.74a7.26 7.26 0 0 1-.67-1.69 3.58 3.58 0 0 0-3.2-2.36l-2.41-.09a2.92 2.92 0 0 0-2.83 1.83z"/><path class="cls-2" d="M87.3 51.85l-.58-1.08C86.13 46 79 42 70.06 41.67h-1.15c-7.38 0-13.57 2.61-15.55 6.32a28.14 28.14 0 0 0-6.27 2.43c-9.81 5.19-15.43 15.4-15.8 26.48a5.57 5.57 0 0 1-.25.7 18.76 18.76 0 0 0-2.08.81c-3.5 1.58-5.72 3.9-5.82 6.55a5.23 5.23 0 0 0 .54 2.47 4.41 4.41 0 0 1 .52.9l.22.47a42.13 42.13 0 0 0 12.38 14.49 10.93 10.93 0 0 0 .15 2.1l-13 6.42a.59.59 0 0 0 .1 1.11l8.06 1.67a1 1 0 0 0 .81-.06l12.45-6.13a44.46 44.46 0 0 0 4.92 1.92 44 44 0 0 0 11 2l-8.43 3.93c-.77.52-.71 1.13-.15 1.34l9.45 1.2a2.67 2.67 0 0 0 1.29 0l35.17-16.38a1 1 0 0 0-.58-1.13l-5-.64c4.42-4.69 6.55-9.75 6.15-13.08a3.18 3.18 0 0 0 1.21-1.69c4.72-16.31-6.85-31.43-13.1-34.02zm5.85 42.42a27 27 0 0 1-5 5.7c-.08 0-.14 0-.13-.08L70.4 108.1a40 40 0 0 1-4.43.46h-3.59a40.38 40.38 0 0 1-10.94-1.91c-.51-.16-1-.35-1.51-.53L74.52 94a.59.59 0 0 0-.1-1.11l-8.06-1.67a1 1 0 0 0-.82.06l-11.11 5.5a9 9 0 0 1 2-5 1.22 1.22 0 0 0-.25-1.78l-2.31-1.5a1.21 1.21 0 0 0-1.57.25 12.52 12.52 0 0 0-2.94 10.52l-6.76 3.34-.36-.23a8.78 8.78 0 0 1 1.88-4 1.2 1.2 0 0 0-.27-1.81l-2.31-1.46a1.23 1.23 0 0 0-1.58.25 14.91 14.91 0 0 0-2.29 3.8c-.34-.29-.68-.56-1-.85a37.49 37.49 0 0 1-8.8-11.16c-.07-.14-.12-.26-.17-.37v-.06a7.24 7.24 0 0 0-.7-1.18 1.29 1.29 0 0 1-.07-.46c0-.8 1.14-2.11 3.57-3.21.52-.23 1.1-.46 1.71-.66l1.6-.53.68-1.54a8.2 8.2 0 0 0 .51-1.21l.13-.45V77A29.09 29.09 0 0 1 39 63.36a25.09 25.09 0 0 1 9.92-9.58 24.12 24.12 0 0 1 5.43-2.1l1.63-.42.8-1.49c1.11-2.08 5.75-4.29 12.17-4.29h1a22.19 22.19 0 0 1 9.73 2.41 7.19 7.19 0 0 1 3 2.68c-7.53-1.43-18.49-1.4-21.73.13-4 1.87-6.47 6.08-9.85 18.88-2.55 9.68 2.21 15 4.67 17a3.26 3.26 0 0 0 2.74.67c4.2-.85 16.84-3.33 22.63-3.3 4.36 0 10.24 2.06 14.06 3.6l.13.3c.16.94-.13 3.21-2.18 6.42zM85.94 44.84a14.68 14.68 0 0 1 3.26 3.27l5.88 4.56 5.78-5.83-19.56-7.49-1.52 1.88s4.5 2.59 6.16 3.61z"/><g opacity=".39"><path class="cls-4" d="M85.81 53.69a36.44 36.44 0 0 0-8.36-1.57L68.31 82a90.13 90.13 0 0 1 12.23-1.38c4.11 0 9.76 2 13.08 3.27a2.92 2.92 0 0 0 3.86-1.73c4.23-13.73-6.19-26.48-11.67-28.47zM62.73 52.81c-3.49 1.56-5.7 5.08-8.68 15.77C52.53 74 54 77.84 55.7 80.26l8.53-27.89a7.77 7.77 0 0 0-1.5.44zM67 52l-9.33 30.41c.17.15.34.29.5.41a3 3 0 0 0 1.81.61l9.67-31.58c-.94.02-1.85.07-2.65.15z"/><path class="cls-5" d="M64.23 52.37L55.7 80.26a13.26 13.26 0 0 0 2 2.15L67 52a22 22 0 0 0-2.77.37zM69.65 51.85L60 83.43a3.14 3.14 0 0 0 .61-.05c1.57-.3 4.49-.85 7.72-1.38l9.14-29.88a69.19 69.19 0 0 0-7.82-.27z"/></g></g></g></svg>